<svg width="81" height="80" viewBox="0 0 81 80" fill="none" xmlns="http://www.w3.org/2000/svg">
<g id="icons8_figma 1">
<path id="Vector" d="M43.6665 28.3333H30.3332C23.8898 28.3333 18.6665 23.11 18.6665 16.6667C18.6665 10.2233 23.8898 5 30.3332 5H43.6665V28.3333Z" fill="#E64A19"/>
<path id="Vector_2" d="M41.9998 51.6666H30.3332C23.8898 51.6666 18.6665 46.4433 18.6665 40C18.6665 33.5566 23.8898 28.3333 30.3332 28.3333H41.9998V51.6666Z" fill="#7C4DFF"/>
<path id="Vector_3" d="M30.3332 75C23.8898 75 18.6665 69.7767 18.6665 63.3334C18.6665 56.89 23.8898 51.6667 30.3332 51.6667H41.9998V63.3334C41.9998 69.7767 36.7765 75 30.3332 75Z" fill="#66BB6A"/>
<path id="Vector_4" d="M53.6667 28.3333H42V5H53.6667C60.11 5 65.3333 10.2233 65.3333 16.6667C65.3333 23.11 60.11 28.3333 53.6667 28.3333Z" fill="#FF7043"/>
<path id="Vector_5" d="M53.6667 51.6666C60.11 51.6666 65.3333 46.4433 65.3333 40C65.3333 33.5567 60.11 28.3333 53.6667 28.3333C47.2233 28.3333 42 33.5567 42 40C42 46.4433 47.2233 51.6666 53.6667 51.6666Z" fill="#29B6F6"/>
</g>
</svg>
