<svg width="80" height="80" viewBox="0 0 80 80" fill="none" xmlns="http://www.w3.org/2000/svg">
<g id="icons8_react_native 1">
<path id="Vector" d="M40.0001 56.6666C18.5001 56.6666 1.66675 49.3333 1.66675 40C1.66675 30.6666 18.5001 23.3333 40.0001 23.3333C61.5001 23.3333 78.3334 30.6666 78.3334 40C78.3334 49.3333 61.5001 56.6666 40.0001 56.6666ZM40.0001 26.6666C19.0001 26.6666 5.00008 33.5 5.00008 40C5.00008 46.5 19.0001 53.3333 40.0001 53.3333C61.0001 53.3333 75.0001 46.5 75.0001 40C75.0001 33.5 61.0001 26.6666 40.0001 26.6666Z" fill="#80DEEA"/>
<path id="Vector_2" d="M25.1666 74.3334C23.5 74.3334 22.1666 74 20.8333 73.1667C12.6666 68.5 14.8333 50.3334 25.5 31.6667C30.5 23 36.6666 15.6667 42.6666 11C49.1666 6.00002 55 4.50002 59 6.83335C63.1666 9.16668 64.6666 15 63.6666 23.1667C62.6666 30.8334 59.3333 39.8334 54.3333 48.5C49.3333 57.1667 43.1666 64.5 37.1666 69.1667C32.8333 72.5 28.6666 74.3334 25.1666 74.3334ZM54.8333 9.00002C52.1666 9.00002 48.6666 10.5 44.8333 13.5C39.1666 18 33.3333 25 28.5 33.3334C18 51.5 17 67.1667 22.5 70.3334C25.3333 72 30 70.5 35.1666 66.5C40.8333 62 46.6666 55 51.5 46.6667C56.3333 38.3334 59.5 29.8334 60.5 22.6667C61.3333 16 60.3333 11.3334 57.5 9.66668C56.6666 9.33335 55.8333 9.00002 54.8333 9.00002Z" fill="#80DEEA"/>
<path id="Vector_3" d="M55 74.3333C46.6667 74.3333 34.6667 64.1667 25.6667 48.3333C14.8333 29.6667 12.6667 11.5 20.8333 6.83333C29 2.16666 43.6667 13 54.5 31.6667C59.5 40.3333 62.8333 49.3333 63.8333 57C65 65.1667 63.3333 70.8333 59.1667 73.3333C57.8333 74 56.5 74.3333 55 74.3333ZM22.5 9.66666C17 12.8333 18 28.5 28.5 46.6667C39 64.8333 52 73.5 57.5 70.3333C60.3333 68.6667 61.3333 64 60.5 57.3333C59.5 50.1667 56.3333 41.6667 51.5 33.3333C41 15.1667 28 6.5 22.5 9.66666Z" fill="#80DEEA"/>
<path id="Vector_4" d="M39.9999 46.6666C43.6818 46.6666 46.6666 43.6819 46.6666 40C46.6666 36.3181 43.6818 33.3333 39.9999 33.3333C36.318 33.3333 33.3333 36.3181 33.3333 40C33.3333 43.6819 36.318 46.6666 39.9999 46.6666Z" fill="#80DEEA"/>
</g>
</svg>
