<svg width="81" height="80" viewBox="0 0 81 80" fill="none" xmlns="http://www.w3.org/2000/svg">
<g id="icons8_adobe_photoshop 1">
<path id="Vector" d="M10.3333 16.6667C10.3333 12.985 13.3183 10 16.9999 10H63.6666C67.3483 10 70.3333 12.985 70.3333 16.6667V63.3333C70.3333 67.015 67.3483 70 63.6666 70H16.9999C13.3183 70 10.3333 67.015 10.3333 63.3333V16.6667Z" fill="#03A9F4"/>
<path id="Vector_2" d="M33.6934 31.9567H30.3567V39.3467H33.645C34.5567 39.3467 35.2617 39.0483 35.7617 38.4517C36.2617 37.855 36.51 36.9867 36.51 35.8467C36.51 34.6633 36.255 33.7233 35.745 33.0233C35.235 32.3233 34.55 31.9683 33.6934 31.9567Z" fill="#020F16"/>
<path id="Vector_3" d="M15.3333 15V65H65.3333V15H15.3333ZM39.2749 41.315C37.8983 42.6617 35.9883 43.3333 33.5466 43.3333H30.3566V51.6667H25.5716V27.9683H33.6449C35.9883 27.9683 37.8583 28.6967 39.2516 30.15C40.6449 31.6033 41.3433 33.4917 41.3433 35.8133C41.3433 38.135 40.6533 39.9683 39.2749 41.315ZM54.8032 50.56C53.6216 51.515 52.0683 51.9917 50.1483 51.9917C48.8566 51.9917 47.7166 51.74 46.7299 51.235C45.7432 50.73 44.9683 50.0267 44.4099 49.1267C43.8516 48.2267 43.5716 47.255 43.5716 46.2133H47.9499C47.9733 47.015 48.1582 47.6183 48.5116 48.02C48.8649 48.4217 49.4416 48.6217 50.2449 48.6217C51.4816 48.6217 52.0999 48.0633 52.0999 46.945C52.0999 46.555 51.9132 46.1933 51.5382 45.8633C51.1632 45.5333 50.3333 45.0867 49.0416 44.5217C47.1433 43.7517 45.8383 42.955 45.1266 42.1283C44.4149 41.3017 44.0599 40.2783 44.0599 39.0517C44.0599 37.51 44.6166 36.2383 45.7283 35.235C46.8399 34.2317 48.3149 33.73 50.1466 33.73C52.0766 33.73 53.6233 34.23 54.7849 35.2267C55.9466 36.2233 56.5266 37.565 56.5266 39.2467H51.9199C51.9199 37.815 51.3249 37.0983 50.1299 37.0983C49.6416 37.0983 49.2416 37.25 48.9249 37.5533C48.6083 37.8567 48.4533 38.2817 48.4533 38.8233C48.4533 39.2133 48.6266 39.5583 48.9749 39.8567C49.3232 40.155 50.1399 40.5817 51.4333 41.135C53.3116 41.83 54.6366 42.6033 55.4132 43.455C56.1899 44.3067 56.5766 45.4117 56.5766 46.7667C56.5766 48.3417 55.9849 49.605 54.8032 50.56Z" fill="#020F16"/>
</g>
</svg>
