<svg width="81" height="80" viewBox="0 0 81 80" fill="none" xmlns="http://www.w3.org/2000/svg">
<g id="icons8_adobe_illustrator 1">
<path id="Vector" d="M10.6665 16.6667C10.6665 12.985 13.6515 10 17.3332 10H63.9998C67.6815 10 70.6665 12.985 70.6665 16.6667V63.3333C70.6665 67.015 67.6815 70 63.9998 70H17.3332C13.6515 70 10.6665 67.015 10.6665 63.3333V16.6667Z" fill="#FF5722"/>
<path id="Vector_2" d="M15.6665 15V65H65.6665V15H15.6665ZM40.1515 51.6667L38.8815 46.8167H32.3548L31.0865 51.6667H26.0248L33.4298 27.9683H37.8082L45.2632 51.6667H40.1515ZM52.0832 51.6667H47.4615V34.0567H52.0832V51.6667ZM51.5865 31.2567C51.1348 31.7233 50.5265 31.9567 49.7548 31.9567C48.9832 31.9567 48.3748 31.7233 47.9232 31.2567C47.4715 30.79 47.2482 30.2033 47.2482 29.4983C47.2482 28.7817 47.4765 28.1967 47.9315 27.74C48.3865 27.2833 48.9965 27.0567 49.7548 27.0567C50.5132 27.0567 51.1215 27.285 51.5782 27.74C52.0348 28.195 52.2615 28.7817 52.2615 29.4983C52.2615 30.2033 52.0365 30.79 51.5865 31.2567Z" fill="#1C0802"/>
<path id="Vector_3" d="M33.3982 42.8283H37.8249L35.6115 34.3817L33.3982 42.8283Z" fill="#1C0802"/>
</g>
</svg>
