<svg width="80" height="80" viewBox="0 0 80 80" fill="none" xmlns="http://www.w3.org/2000/svg">
<g id="icons8_adobe_xd 1">
<path id="Vector" d="M10 16.6667C10 12.985 12.985 10 16.6667 10H63.3333C67.015 10 70 12.985 70 16.6667V63.3333C70 67.015 67.015 70 63.3333 70H16.6667C12.985 70 10 67.015 10 63.3333V16.6667Z" fill="#FF41C8"/>
<path id="Vector_2" d="M15 15V65H65V15H15ZM31.8217 36.1583L35.0117 28.02H40.4967L34.93 39.7717L40.6267 51.7183H35.0767L31.8217 43.4333L28.5833 51.7183H23.0333L28.73 39.7717L23.1467 28.02H28.6317L31.8217 36.1583ZM41.7817 42.3767C41.7817 39.49 42.27 37.3367 43.2467 35.915C44.2233 34.4933 45.6433 33.7833 47.5117 33.7833C48.8667 33.7833 49.9967 34.37 50.8967 35.5417V26.72H55.535V51.72H51.3517L51.14 49.93C50.1967 51.3417 48.98 52.0467 47.4933 52.0467C45.65 52.0467 44.2417 51.3417 43.27 49.93C42.2983 48.5183 41.8017 46.4467 41.78 43.7133L41.7817 42.3767ZM46.405 43.5317C46.405 45.2683 46.5883 46.4817 46.9583 47.17C47.3283 47.8583 47.9517 48.2033 48.83 48.2033C49.7417 48.2033 50.43 47.7967 50.8967 46.9833V38.9433C50.4417 38.075 49.7567 37.6417 48.8467 37.6417C48 37.6417 47.3817 37.9833 46.9917 38.6667C46.6017 39.35 46.405 40.5667 46.405 42.3133V43.5317Z" fill="#16020B"/>
</g>
</svg>
