<svg width="81" height="80" viewBox="0 0 81 80" fill="none" xmlns="http://www.w3.org/2000/svg">
<g id="icons8_java 1">
<path id="Vector" d="M40.0834 41.4966C38.4201 38.815 37.2134 36.5916 35.5418 32.405C32.7151 25.3333 52.7334 18.9433 44.6168 6.66498C48.1351 15.1466 31.9884 20.39 30.4884 27.4533C29.1168 33.95 40.0751 41.4966 40.0834 41.4966Z" fill="#F44336"/>
<path id="Vector_2" d="M40.4634 28.7833C40.1434 32.9766 44.1784 35.2116 44.295 38.275C44.3884 40.7683 41.8834 42.8466 41.8834 42.8466C41.8834 42.8466 46.43 41.9533 47.8484 38.15C49.4234 33.9266 44.7917 31.035 45.2684 27.6533C45.7134 24.4233 55.32 18.415 55.32 18.415C55.32 18.415 41.185 19.3516 40.4634 28.7833Z" fill="#F44336"/>
<g id="Group">
<path id="Vector_3" d="M54.1401 41.7583C57.0634 41.1016 59.5284 42.9633 59.5284 45.1083C59.5284 49.9433 52.8268 54.5133 52.8268 54.5133C52.8268 54.5133 63.2018 53.2766 63.2018 45.3383C63.2018 40.0883 58.1068 38.7766 54.1401 41.7583ZM49.2151 45.6583C49.2151 45.6583 52.4501 43.3533 53.3118 42.4883C45.3734 44.1733 27.2484 44.4 27.2484 42.9366C27.2484 41.5883 33.0934 40.2066 33.0934 40.2066C33.0934 40.2066 20.1384 40.02 20.1384 43.8416C20.1384 47.825 37.0968 48.11 49.2151 45.6583Z" fill="#1565C0"/>
<path id="Vector_4" d="M47.2251 49.2849C39.7101 51.7833 25.8684 50.9849 29.9684 47.6299C27.9717 47.6299 25.0117 49.2349 25.0117 50.7783C25.0117 53.8733 39.9817 56.2633 51.0617 51.7316L47.2251 49.2849Z" fill="#1565C0"/>
<path id="Vector_5" d="M31.81 54.5649C29.0834 54.5649 27.3184 56.3216 27.3184 57.6016C27.3184 61.5866 43.585 61.9883 50.03 57.9433L45.9334 55.2233C41.1184 57.3399 29.0234 57.6316 31.81 54.5649Z" fill="#1565C0"/>
<path id="Vector_6" d="M61.1351 61.0533C61.1351 59.4933 59.3767 58.7583 58.7467 58.4066C62.4601 67.3616 21.5517 66.6666 21.5517 61.38C21.5517 60.1783 24.5634 59.0016 27.3467 59.5583L24.9801 58.16C19.4334 57.29 15.6667 59.7283 15.6667 61.695C15.6667 70.8666 61.1351 70.425 61.1351 61.0533Z" fill="#1565C0"/>
<path id="Vector_7" d="M65.6667 64.34C58.7567 71.165 41.235 73.6516 23.615 69.435C41.235 76.94 65.5833 72.7133 65.6667 64.34Z" fill="#1565C0"/>
</g>
</g>
</svg>
