<svg width="32" height="32" viewBox="0 0 32 32" fill="none" xmlns="http://www.w3.org/2000/svg">
<g id="Icons">
<path id="Vector" d="M24.3426 8.95251C24.0826 8.94751 23.8451 9.10251 23.7401 9.34001C23.6376 9.58001 23.6901 9.85751 23.8726 10.0425L28.9776 15.36H1.2951C1.0651 15.3575 0.850097 15.4775 0.735098 15.6775C0.617598 15.8775 0.617598 16.1225 0.735098 16.3225C0.850097 16.5225 1.0651 16.6425 1.2951 16.64H28.9776L23.8726 21.9575C23.6276 22.2125 23.6376 22.6175 23.8926 22.8625C24.1476 23.1075 24.5526 23.1 24.7976 22.8425L31.3676 16L24.7976 9.15751C24.6801 9.03001 24.5151 8.95751 24.3426 8.95251Z" fill="#D9AF62"/>
</g>
</svg>
