<svg width="40" height="40" viewBox="0 0 40 40" fill="none" xmlns="http://www.w3.org/2000/svg">
<g id="Icons">
<path id="Vector" d="M20.0001 1.60001C9.8545 1.60001 1.6001 9.85441 1.6001 20C1.6001 30.1456 9.8545 38.4 20.0001 38.4C30.1457 38.4 38.4001 30.1456 38.4001 20C38.4001 16.3224 37.3118 12.8956 35.4454 10.0172L34.7313 10.7313L34.2751 11.1875C35.8655 13.7531 36.8001 16.7656 36.8001 20C36.8001 29.264 29.2641 36.8 20.0001 36.8C10.7361 36.8 3.2001 29.264 3.2001 20C3.2001 10.736 10.7361 3.20001 20.0001 3.20001C23.9308 3.20001 27.5364 4.57396 30.4001 6.84532V8.46876L28.4517 10.4172C26.1954 8.42192 23.2416 7.20001 20.0001 7.20001C12.9425 7.20001 7.2001 12.9424 7.2001 20C7.2001 27.0576 12.9425 32.8 20.0001 32.8C27.0577 32.8 32.8001 27.0576 32.8001 20C32.8001 17.3368 31.9805 14.8613 30.5829 12.8109L29.4235 13.9703C30.5419 15.7135 31.2001 17.7792 31.2001 20C31.2001 26.176 26.1761 31.2 20.0001 31.2C13.8241 31.2 8.8001 26.176 8.8001 20C8.8001 13.824 13.8241 8.80001 20.0001 8.80001C22.8011 8.80001 25.3562 9.8414 27.3204 11.5484L24.4829 14.3859C23.252 13.3986 21.6973 12.8 20.0001 12.8C16.0305 12.8 12.8001 16.0304 12.8001 20C12.8001 23.9696 16.0305 27.2 20.0001 27.2C23.9697 27.2 27.2001 23.9696 27.2001 20C27.2001 18.8904 26.9403 17.8439 26.4907 16.9047L25.2704 18.1234C25.48 18.7106 25.6001 19.3416 25.6001 20C25.6001 23.088 23.0881 25.6 20.0001 25.6C16.9121 25.6 14.4001 23.088 14.4001 20C14.4001 16.912 16.9121 14.4 20.0001 14.4C21.2561 14.4 22.4122 14.8208 23.347 15.5219L20.4126 18.4563C20.2781 18.4196 20.1395 18.4007 20.0001 18.4C19.5758 18.4 19.1688 18.5686 18.8687 18.8686C18.5687 19.1687 18.4001 19.5757 18.4001 20C18.4001 20.4244 18.5687 20.8313 18.8687 21.1314C19.1688 21.4314 19.5758 21.6 20.0001 21.6C20.4244 21.6 20.8314 21.4314 21.1315 21.1314C21.4315 20.8313 21.6001 20.4244 21.6001 20C21.6 19.8602 21.5817 19.721 21.5454 19.5859L31.5314 9.60001H33.6001L37.6001 5.60001H34.4001V2.40001L31.3017 5.49844C28.18 3.05948 24.2596 1.60001 20.0001 1.60001Z" fill="#212428"/>
</g>
</svg>
