<svg width="50" height="50" viewBox="0 0 50 50" fill="none" xmlns="http://www.w3.org/2000/svg">
<g id="Icons">
<path id="Vector" d="M19 3V7H12C9.24219 7 7 9.24219 7 12V20H2V30H14V20H9V12C9 10.3477 10.3477 9 12 9H19V13H31V3H19ZM21 5H29V11H21V5ZM33 7V9H38C39.6523 9 41 10.3477 41 12V20H36V30H48V20H43V12C43 9.24219 40.7578 7 38 7H33ZM4 22H12V28H4V22ZM38 22H46V28H38V22ZM7 32V38C7 40.7578 9.24219 43 12 43H19V47H31V37H19V41H12C10.3477 41 9 39.6523 9 38V32H7ZM41 32V38C41 39.6523 39.6523 41 38 41H33V43H38C40.7578 43 43 40.7578 43 38V32H41ZM21 39H29V45H21V39Z" fill="#D9AF62"/>
</g>
</svg>
